<svg height="54" viewBox="0 0 267 54" width="267" xmlns="http://www.w3.org/2000/svg" xmlns:xlink="http://www.w3.org/1999/xlink"><linearGradient id="a" x1="33.26213%" x2="73.347135%" y1="3.564657%" y2="101.699705%"><stop offset="0" stop-color="#009ee8"/><stop offset="1" stop-color="#171c60"/></linearGradient><mask id="b" fill="#fff"><path d="m13.9642867 3.1398951c-.5931259.3311049-.805979 1.08044756-.4748741 1.67419581.3311049.59312587 1.0810699.80597902 1.6741958.47487412 3.1747482-1.77128671 6.7808042-2.70734265 10.4298042-2.70734265 4.4973007 0 8.9746853 1.45574126 12.6087482 4.10022377 2.6251889 1.91007693 4.5844336 4.02304895 5.8235875 6.27979025.2246783.4076573.6454055.637937 1.0798251.637937.1997832 0 .4033007-.0485454.5912588-.1524825.5956154-.3261259.8134475-1.0748461.4860769-1.6704615-1.4146643-2.57602101-3.6129021-4.9597273-6.5330979-7.08514688-4.051056-2.94695804-9.0431469-4.57074126-14.0563986-4.57074126-4.0678602 0-8.0884196 1.04372727-11.6291259 3.01915384zm.2452168 5.69351049c-.5557832.39085315-.688972 1.15824476-.2981189 1.71465031.2396154.3404406.6205105.5221749 1.0076294.5221749.2445944 0 .4916783-.0728182.707021-.224056 3.0944615-2.17832165 6.9046573-3.1280699 10.7291678-2.67186711.6721678.08028672 1.2876993-.40143356 1.367986-1.07671328.0802867-.67465735-.4020559-1.28707693-1.0767133-1.36736364-.7238252-.08651049-1.4476503-.12883217-2.1677412-.12883217-3.6826084 0-7.2643916 1.11716783-10.2692308 3.23200699zm15.6988531-1.17006993c-.2557972.63046854.0466784 1.34744756.6765245 1.60324476 4.3504196 1.76817478 7.7635385 5.43833568 9.1315245 9.81862938.1649301.5259091.6503846.8638601 1.1744266.8638601.121986 0 .2452168-.0186713.3672028-.056014.6485174-.2035174 1.0101188-.8937342.8078461-1.5422517-1.5845734-5.0736224-5.5304475-9.32259441-10.5542797-11.36399301-.1512378-.06161539-.3086993-.09086713-.463049-.09086713-.4860769 0-.9460139.28940559-1.1401958.7673916zm-23.41073422 3.26623774c-.54209091 1.1563776-1.34371329 3.8369581-1.38354546 3.9689021-.40952447 1.4607203-.7841958 3.0434266-.74436363 4.7188672.01804895.7524545.20165035 1.4308461.36346853 2.0295734.12945454.4773636.25206294.9292098.27322377 1.3493147.07593007 1.4955734-1.61444755 3.3110489-2.97247552 4.7686573-.4393986.473007-.85576923.9186294-1.20367832 1.3430909-.21160839.2576644-.85639161 1.0424825-.67963637 2.0115245.07344056.4057902.31927973.9802448 1.07048952 1.414042.79290909.4580699 1.65116783.7761048 2.54925874.9472587.0777972.0149371.1555944.0217832.23090209.0217832.58005595 0 1.096007-.4107692 1.20803497-1.0007832.12696503-.6671888-.31181119-1.3113497-.97962238-1.4389371-.49727972-.0946014-.97588811-.2533077-1.42897902-.4748741.28878322-.3447972.65225175-.735028 1.03439161-1.1451748 1.6741958-1.7986713 3.75791608-4.0354965 3.62908392-6.5716853-.03485315-.683993-.20476224-1.3125944-.35537763-1.8671329-.13754545-.5091049-.26762237-.9902028-.27882517-1.4457832-.03236364-1.3505595.29562937-2.7179231.64851748-3.9751259.21658741-.7244475.86261539-2.7863846 1.24786713-3.6097902.28816084-.6155315.02302798-1.3474476-.59312587-1.6356084-.16804196-.079042-.34604196-.117007-.52030769-.117007-.46242658 0-.90618182.2626434-1.1153007.7088881zm16.01937762.3864965c-.6709231.1151399-1.1202797.7518322-1.0051399 1.4215105.1151399.6696783.7493427 1.1184126 1.4208882 1.0045175 3.1436293-.5414685 6.4515664.5053706 8.8483426 2.7963427 2.2648322 2.1646293 3.3452797 5.1507972 2.9637622 8.1917342-.0398321.3118112-.0902447.6416714-.1605734 1.0381259-.1176294.6684336.3298602 1.306993.9989161 1.4246224.0721958.0130699.1443916.0192937.2153427.0192937.5856573 0 1.1047202-.4201049 1.2105244-1.0169651.0765525-.436909.1325665-.8047342.1773777-1.1588671.4798531-3.822021-.870084-7.5681119-3.705014-10.2773217-2.4409651-2.3332937-5.6605245-3.6172587-8.9074686-3.6172587-.6864825 0-1.3748321.0572587-2.056958.1742657zm-4.745007 1.8111189-.2657552.135056c-1.8036504.9142727-4.1661958 2.0774965-6.4472098 2.9681188-.6329581.247084-.946014.9609511-.6989301 1.5939091.1898252.486077.6547413.7835735 1.147042.7835735.1487482 0 .3006084-.0273847.4468671-.0852658 2.379972-.9285874 4.8116014-2.1254196 6.6644196-3.0645874l.2676224-.1369231c.6061958-.3074545.8483007-1.0480839.5402237-1.6542797-.2172098-.4275734-.6497622-.6734126-1.0978741-.6734126-.1873357 0-.3777832.0429441-.5564056.1338112zm3.6328182 4.4935664c-3.2842867 1.6928672-7.0938602 3.5948532-10.7279231 4.7375385-.6478951.2047622-1.00825174.8962238-.80411188 1.5441189.16493008.5246643.65038458.8613706 1.17380418.8613706.1226084 0 .2464616-.0186713.3690699-.0572587 3.8195315-1.2024336 7.7411329-3.1579441 11.1169091-4.8974895 1.5596784-.8034895 3.4616644-.6858602 4.8458322.2993636.5545385.3952098 1.3225525.2657552 1.7165175-.2875385.3945874-.5545384.2651329-1.32193-.2881608-1.7165174-1.193098-.8501679-2.6326574-1.2827203-4.0846644-1.2827203-1.1345944 0-2.2766573.2645105-3.3172727.7991328zm24.2882867 3.1318042c-.0255175.8557693-.1026923 1.7333217-.2259231 2.6077623-.5252867 3.7068811-1.9281258 7.4822238-4.0554126 10.9165035-.0056014.0087133-.0112028.0174265-.0168042.0255175-.2153426.3684475-.4487342.7362727-.6951958 1.1252587-1.0300349 1.6212937-2.1963706 3.4604196-2.0638042 5.5777483.2869161 3.729909 1.4227553 5.3182167 2.7372168 7.157965l.0827762.1151398c.2402378.336084.618021.5153287 1.0026504.5153287.2470839 0 .4966573-.0746853.7138671-.2296573.5526714-.3945874.6815035-1.1632238.2862937-1.7158951l-.0833986-.1163846c-1.2347972-1.7277203-2.0513566-2.8697833-2.2841258-5.897028-.0815315-1.3026364.7767272-2.6563077 1.6860209-4.0883986.2452168-.3858741.4985245-.7848182.7337833-1.1856294 2.30093-3.7187063 3.8207762-7.8176853 4.3927412-11.8550489.1369231-.964063.2203217-1.9324826.2495734-2.8784965.0199161-.6796364-.5134615-1.2472448-1.1924755-1.2677833-.014937 0-.0292517-.0006223-.0435664-.0006223-.6678112 0-1.2036783.5290209-1.2242168 1.1937202zm-15.4474126 1.0748462c-.6759021.0715734-1.1663356.6765245-1.0953846 1.3530489.0441888.4176154.028007.8402098-.0479231 1.2565805-.2483286 1.3623846-1.0953846 2.5088042-2.3252028 3.1423846-3.3185175 1.7127832-7.1940629 3.6577133-11.1965734 5.0692657-2.5523706.8999581-4.0466993 3.4828252-3.5531538 6.1422448.0914895.4910559.1923146.9771328.3093216 1.4862377.1306993.5700979.6373147.9559721 1.198077.9559721.0908671 0 .1836014-.0099581.2763356-.0311189.6628322-.1518602 1.0767133-.8122028.9248532-1.4744126-.1089161-.4754965-.2035175-.9292098-.2887833-1.386035-.2707342-1.4600979.5495595-2.8778741 1.9517763-3.3720419 4.150014-1.4632098 8.1151818-3.4529511 11.5065175-5.203077 1.9138111-.9870909 3.2326293-2.768958 3.6185035-4.8893986.1176293-.6460279.1425244-1.3032587.0740629-1.9542657-.0672168-.632958-.6012168-1.1016084-1.2248392-1.1016084-.0423217 0-.0846433.0018672-.1275874.0062238zm11.3602588.5881468c-.679014 0-1.2304406.5514266-1.2304406 1.2304406-.0006224 1.0505734-.1051818 2.1011469-.3118112 3.1230909-.1350559.6665664.2956294 1.3157063.9615734 1.4501399.0827763.0168042.1649301.0248951.2458392.0248951.5732098 0 1.0872937-.4033007 1.2043007-.9870909.2396154-1.1818951.360979-2.3967763.360979-3.6104126 0-.6796364-.5508042-1.231063-1.2298182-1.231063zm-17.4228392.1375455c-4.7947972 2.4739511-9.897049 4.9765315-14.92772728 6.0252378-.6646993.1381678-1.09227272.7897972-.95348252 1.4551188.12074126.5806784.63233567.9802448 1.20305595.9802448.0833986 0 .16804196-.0087133.25268531-.0267622 5.33315384-1.1109441 10.60842654-3.695056 15.55446154-6.2474266.6043287-.3111888.8408322-1.0536853.5283986-1.658014-.2184545-.4225944-.6485175-.6659441-1.0941399-.6659441-.1898251 0-.3827622.0441889-.5632517.1375455zm10.9793636 7.1816154c-.6796363.0087133-1.222972.566986-1.2136363 1.2472447.0255175 1.8515735.2651328 3.6377972.7138671 5.307014.1481259.5495595.6447832.9117832 1.1874965.9117832.1064266 0 .2134755-.0143146.3199021-.042944.6566084-.1761329 1.0462168-.8514126.8700839-1.5073986-.3958321-1.4725455-.6080629-3.0546294-.6304685-4.7026853-.0093357-.674035-.5582727-1.2136364-1.2304406-1.2136364-.004979 0-.0105804 0-.0168042.0006224zm-5.6126014 2.4608811c-.6765244.0622378-1.1738042.6622098-1.1115664 1.3387343.2153427 2.3164895.7947762 4.586923 1.7706643 6.9395105.196049.4736293.6541189.759923 1.137084.759923.1568391 0 .3167902-.0304965.4705174-.093979.6279791-.2607762.9254756-.9802447.6653217-1.6082238-.8787972-2.1223077-1.4003496-4.1581049-1.5926643-6.2250209-.0591259-.6373147-.5943707-1.1165455-1.2242168-1.1165455-.037965 0-.0765525.0018671-.1151399.0056014zm-5.4576293 2.5548601c-.6709231.1089161-1.1265035.7406294-1.0175875 1.4121749 1.0997413 6.7783147 4.8725945 12.5826084 8.4189021 17.3662028.2408602.3261258.613042.4979021.9889581.4979021.2551748 0 .5115944-.079042.7319161-.2421049.5458251-.4051679.660965-1.1756714.2557972-1.7214965-3.5388392-4.7748812-6.9538252-10.0538881-7.9664336-16.2944686-.0977133-.604951-.6192657-1.0343916-1.2136364-1.0343916-.0653496 0-.1313216.0056014-.197916.0161818zm-19.1667413 1.4781469c-.66220979.1524825-1.07484615.8134476-.92236363 1.4756573.90991608 3.9458742 1.05741958 4.7692798 1.08044755 4.9497693.21160839 1.58893 1.02256643 3.681986 5.58521678 3.5288811.0093357-.0006224.0186713-.0006224.0286294-.0012448.6410489-.0367202 1.2964126-.1238531 1.9293706-.2078741 1.7046923-.2259231 3.3147832-.4393986 4.595014.2595315.159951.0871328.3242587.1736433.4941678.2632657 1.4495175.7655245 3.0925944 1.6318741 5.2671818 4.6273776.0852658.1176294.3628462.5246644 1.0935175 1.7507483.2302797.3864965.6391818.6012168 1.058042.6012168.2147203 0 .4313077-.056014.6286014-.1736434.5844126-.3479091.7761049-1.1028531.4281958-1.6866433-.5756993-.9653077-.9846014-1.6169371-1.2161259-1.9374616-2.5125385-3.4585524-4.5919021-4.5564266-6.1105035-5.3580489-.159951-.084021-.3143007-.1661749-.4649161-.2477063-1.9866293-1.0835595-4.1693077-.7935315-6.0968112-.5383567-.60993.0815315-1.1868741.1580839-1.7326993.1892028-2.84364332.0933567-2.95442653-.6958182-3.04591605-1.3847902-.03734265-.2968741-.19418181-1.1582447-1.1233916-5.1868951-.13132168-.5688531-.63669231-.9547273-1.19683217-.9547273-.09148951 0-.18546853.0105805-.27882518.0317413zm13.7495664.5794336c-.665944.1313216-1.100986.777972-.9696643 1.4451608.1630629.8308741.5178182 2.1042587.7524545 2.9475804l.0473007.1692867c.1518602.5445805.646028.9012028 1.1856294.9012028.1089161 0 .2196993-.014937.3298602-.0454335.6541188-.1823567 1.0381258-.8607483.8563916-1.5154895l-.0479231-.1692868c-.2246783-.8072237-.5638741-2.0258391-.7082657-2.7627342-.1163847-.5869021-.631091-.9933147-1.2074126-.9933147-.0784196 0-.1580839.0074685-.2383707.023028zm14.103077 6.2100839c-.5862798.3454196-.7804616 1.0991189-.435042 1.6847762 1.7843566 3.0272448 4.0373636 5.9474406 5.8478601 8.2944266.2421049.3143007.6061958.477986.9746434.477986.2632657 0 .5271538-.0833986.7512098-.2557972.5377343-.4157483.6379371-1.1881189.2228112-1.7264755-2.2492727-2.9152168-4.0952448-5.358049-5.6767063-8.0398742-.229035-.388986-.6391818-.6055734-1.0611539-.6055734-.2122307 0-.426951.0547692-.6236223.1705315z" fill="#fff" fill-rule="evenodd"/></mask><g fill="none" fill-rule="evenodd"><path d="m13.9642867 3.1398951c-.5931259.3311049-.805979 1.08044756-.4748741 1.67419581.3311049.59312587 1.0810699.80597902 1.6741958.47487412 3.1747482-1.77128671 6.7808042-2.70734265 10.4298042-2.70734265 4.4973007 0 8.9746853 1.45574126 12.6087482 4.10022377 2.6251889 1.91007693 4.5844336 4.02304895 5.8235875 6.27979025.2246783.4076573.6454055.637937 1.0798251.637937.1997832 0 .4033007-.0485454.5912588-.1524825.5956154-.3261259.8134475-1.0748461.4860769-1.6704615-1.4146643-2.57602101-3.6129021-4.9597273-6.5330979-7.08514688-4.051056-2.94695804-9.0431469-4.57074126-14.0563986-4.57074126-4.0678602 0-8.0884196 1.04372727-11.6291259 3.01915384zm.2452168 5.69351049c-.5557832.39085315-.688972 1.15824476-.2981189 1.71465031.2396154.3404406.6205105.5221749 1.0076294.5221749.2445944 0 .4916783-.0728182.707021-.224056 3.0944615-2.17832165 6.9046573-3.1280699 10.7291678-2.67186711.6721678.08028672 1.2876993-.40143356 1.367986-1.07671328.0802867-.67465735-.4020559-1.28707693-1.0767133-1.36736364-.7238252-.08651049-1.4476503-.12883217-2.1677412-.12883217-3.6826084 0-7.2643916 1.11716783-10.2692308 3.23200699zm15.6988531-1.17006993c-.2557972.63046854.0466784 1.34744756.6765245 1.60324476 4.3504196 1.76817478 7.7635385 5.43833568 9.1315245 9.81862938.1649301.5259091.6503846.8638601 1.1744266.8638601.121986 0 .2452168-.0186713.3672028-.056014.6485174-.2035174 1.0101188-.8937342.8078461-1.5422517-1.5845734-5.0736224-5.5304475-9.32259441-10.5542797-11.36399301-.1512378-.06161539-.3086993-.09086713-.463049-.09086713-.4860769 0-.9460139.28940559-1.1401958.7673916zm-23.41073422 3.26623774c-.54209091 1.1563776-1.34371329 3.8369581-1.38354546 3.9689021-.40952447 1.4607203-.7841958 3.0434266-.74436363 4.7188672.01804895.7524545.20165035 1.4308461.36346853 2.0295734.12945454.4773636.25206294.9292098.27322377 1.3493147.07593007 1.4955734-1.61444755 3.3110489-2.97247552 4.7686573-.4393986.473007-.85576923.9186294-1.20367832 1.3430909-.21160839.2576644-.85639161 1.0424825-.67963637 2.0115245.07344056.4057902.31927973.9802448 1.07048952 1.414042.79290909.4580699 1.65116783.7761048 2.54925874.9472587.0777972.0149371.1555944.0217832.23090209.0217832.58005595 0 1.096007-.4107692 1.20803497-1.0007832.12696503-.6671888-.31181119-1.3113497-.97962238-1.4389371-.49727972-.0946014-.97588811-.2533077-1.42897902-.4748741.28878322-.3447972.65225175-.735028 1.03439161-1.1451748 1.6741958-1.7986713 3.75791608-4.0354965 3.62908392-6.5716853-.03485315-.683993-.20476224-1.3125944-.35537763-1.8671329-.13754545-.5091049-.26762237-.9902028-.27882517-1.4457832-.03236364-1.3505595.29562937-2.7179231.64851748-3.9751259.21658741-.7244475.86261539-2.7863846 1.24786713-3.6097902.28816084-.6155315.02302798-1.3474476-.59312587-1.6356084-.16804196-.079042-.34604196-.117007-.52030769-.117007-.46242658 0-.90618182.2626434-1.1153007.7088881zm16.01937762.3864965c-.6709231.1151399-1.1202797.7518322-1.0051399 1.4215105.1151399.6696783.7493427 1.1184126 1.4208882 1.0045175 3.1436293-.5414685 6.4515664.5053706 8.8483426 2.7963427 2.2648322 2.1646293 3.3452797 5.1507972 2.9637622 8.1917342-.0398321.3118112-.0902447.6416714-.1605734 1.0381259-.1176294.6684336.3298602 1.306993.9989161 1.4246224.0721958.0130699.1443916.0192937.2153427.0192937.5856573 0 1.1047202-.4201049 1.2105244-1.0169651.0765525-.436909.1325665-.8047342.1773777-1.1588671.4798531-3.822021-.870084-7.5681119-3.705014-10.2773217-2.4409651-2.3332937-5.6605245-3.6172587-8.9074686-3.6172587-.6864825 0-1.3748321.0572587-2.056958.1742657zm-4.745007 1.8111189-.2657552.135056c-1.8036504.9142727-4.1661958 2.0774965-6.4472098 2.9681188-.6329581.247084-.946014.9609511-.6989301 1.5939091.1898252.486077.6547413.7835735 1.147042.7835735.1487482 0 .3006084-.0273847.4468671-.0852658 2.379972-.9285874 4.8116014-2.1254196 6.6644196-3.0645874l.2676224-.1369231c.6061958-.3074545.8483007-1.0480839.5402237-1.6542797-.2172098-.4275734-.6497622-.6734126-1.0978741-.6734126-.1873357 0-.3777832.0429441-.5564056.1338112zm3.6328182 4.4935664c-3.2842867 1.6928672-7.0938602 3.5948532-10.7279231 4.7375385-.6478951.2047622-1.00825174.8962238-.80411188 1.5441189.16493008.5246643.65038458.8613706 1.17380418.8613706.1226084 0 .2464616-.0186713.3690699-.0572587 3.8195315-1.2024336 7.7411329-3.1579441 11.1169091-4.8974895 1.5596784-.8034895 3.4616644-.6858602 4.8458322.2993636.5545385.3952098 1.3225525.2657552 1.7165175-.2875385.3945874-.5545384.2651329-1.32193-.2881608-1.7165174-1.193098-.8501679-2.6326574-1.2827203-4.0846644-1.2827203-1.1345944 0-2.2766573.2645105-3.3172727.7991328zm24.2882867 3.1318042c-.0255175.8557693-.1026923 1.7333217-.2259231 2.6077623-.5252867 3.7068811-1.9281258 7.4822238-4.0554126 10.9165035-.0056014.0087133-.0112028.0174265-.0168042.0255175-.2153426.3684475-.4487342.7362727-.6951958 1.1252587-1.0300349 1.6212937-2.1963706 3.4604196-2.0638042 5.5777483.2869161 3.729909 1.4227553 5.3182167 2.7372168 7.157965l.0827762.1151398c.2402378.336084.618021.5153287 1.0026504.5153287.2470839 0 .4966573-.0746853.7138671-.2296573.5526714-.3945874.6815035-1.1632238.2862937-1.7158951l-.0833986-.1163846c-1.2347972-1.7277203-2.0513566-2.8697833-2.2841258-5.897028-.0815315-1.3026364.7767272-2.6563077 1.6860209-4.0883986.2452168-.3858741.4985245-.7848182.7337833-1.1856294 2.30093-3.7187063 3.8207762-7.8176853 4.3927412-11.8550489.1369231-.964063.2203217-1.9324826.2495734-2.8784965.0199161-.6796364-.5134615-1.2472448-1.1924755-1.2677833-.014937 0-.0292517-.0006223-.0435664-.0006223-.6678112 0-1.2036783.5290209-1.2242168 1.1937202zm-15.4474126 1.0748462c-.6759021.0715734-1.1663356.6765245-1.0953846 1.3530489.0441888.4176154.028007.8402098-.0479231 1.2565805-.2483286 1.3623846-1.0953846 2.5088042-2.3252028 3.1423846-3.3185175 1.7127832-7.1940629 3.6577133-11.1965734 5.0692657-2.5523706.8999581-4.0466993 3.4828252-3.5531538 6.1422448.0914895.4910559.1923146.9771328.3093216 1.4862377.1306993.5700979.6373147.9559721 1.198077.9559721.0908671 0 .1836014-.0099581.2763356-.0311189.6628322-.1518602 1.0767133-.8122028.9248532-1.4744126-.1089161-.4754965-.2035175-.9292098-.2887833-1.386035-.2707342-1.4600979.5495595-2.8778741 1.9517763-3.3720419 4.150014-1.4632098 8.1151818-3.4529511 11.5065175-5.203077 1.9138111-.9870909 3.2326293-2.768958 3.6185035-4.8893986.1176293-.6460279.1425244-1.3032587.0740629-1.9542657-.0672168-.632958-.6012168-1.1016084-1.2248392-1.1016084-.0423217 0-.0846433.0018672-.1275874.0062238zm11.3602588.5881468c-.679014 0-1.2304406.5514266-1.2304406 1.2304406-.0006224 1.0505734-.1051818 2.1011469-.3118112 3.1230909-.1350559.6665664.2956294 1.3157063.9615734 1.4501399.0827763.0168042.1649301.0248951.2458392.0248951.5732098 0 1.0872937-.4033007 1.2043007-.9870909.2396154-1.1818951.360979-2.3967763.360979-3.6104126 0-.6796364-.5508042-1.231063-1.2298182-1.231063zm-17.4228392.1375455c-4.7947972 2.4739511-9.897049 4.9765315-14.92772728 6.0252378-.6646993.1381678-1.09227272.7897972-.95348252 1.4551188.12074126.5806784.63233567.9802448 1.20305595.9802448.0833986 0 .16804196-.0087133.25268531-.0267622 5.33315384-1.1109441 10.60842654-3.695056 15.55446154-6.2474266.6043287-.3111888.8408322-1.0536853.5283986-1.658014-.2184545-.4225944-.6485175-.6659441-1.0941399-.6659441-.1898251 0-.3827622.0441889-.5632517.1375455zm10.9793636 7.1816154c-.6796363.0087133-1.222972.566986-1.2136363 1.2472447.0255175 1.8515735.2651328 3.6377972.7138671 5.307014.1481259.5495595.6447832.9117832 1.1874965.9117832.1064266 0 .2134755-.0143146.3199021-.042944.6566084-.1761329 1.0462168-.8514126.8700839-1.5073986-.3958321-1.4725455-.6080629-3.0546294-.6304685-4.7026853-.0093357-.674035-.5582727-1.2136364-1.2304406-1.2136364-.004979 0-.0105804 0-.0168042.0006224zm-5.6126014 2.4608811c-.6765244.0622378-1.1738042.6622098-1.1115664 1.3387343.2153427 2.3164895.7947762 4.586923 1.7706643 6.9395105.196049.4736293.6541189.759923 1.137084.759923.1568391 0 .3167902-.0304965.4705174-.093979.6279791-.2607762.9254756-.9802447.6653217-1.6082238-.8787972-2.1223077-1.4003496-4.1581049-1.5926643-6.2250209-.0591259-.6373147-.5943707-1.1165455-1.2242168-1.1165455-.037965 0-.0765525.0018671-.1151399.0056014zm-5.4576293 2.5548601c-.6709231.1089161-1.1265035.7406294-1.0175875 1.4121749 1.0997413 6.7783147 4.8725945 12.5826084 8.4189021 17.3662028.2408602.3261258.613042.4979021.9889581.4979021.2551748 0 .5115944-.079042.7319161-.2421049.5458251-.4051679.660965-1.1756714.2557972-1.7214965-3.5388392-4.7748812-6.9538252-10.0538881-7.9664336-16.2944686-.0977133-.604951-.6192657-1.0343916-1.2136364-1.0343916-.0653496 0-.1313216.0056014-.197916.0161818zm-19.1667413 1.4781469c-.66220979.1524825-1.07484615.8134476-.92236363 1.4756573.90991608 3.9458742 1.05741958 4.7692798 1.08044755 4.9497693.21160839 1.58893 1.02256643 3.681986 5.58521678 3.5288811.0093357-.0006224.0186713-.0006224.0286294-.0012448.6410489-.0367202 1.2964126-.1238531 1.9293706-.2078741 1.7046923-.2259231 3.3147832-.4393986 4.595014.2595315.159951.0871328.3242587.1736433.4941678.2632657 1.4495175.7655245 3.0925944 1.6318741 5.2671818 4.6273776.0852658.1176294.3628462.5246644 1.0935175 1.7507483.2302797.3864965.6391818.6012168 1.058042.6012168.2147203 0 .4313077-.056014.6286014-.1736434.5844126-.3479091.7761049-1.1028531.4281958-1.6866433-.5756993-.9653077-.9846014-1.6169371-1.2161259-1.9374616-2.5125385-3.4585524-4.5919021-4.5564266-6.1105035-5.3580489-.159951-.084021-.3143007-.1661749-.4649161-.2477063-1.9866293-1.0835595-4.1693077-.7935315-6.0968112-.5383567-.60993.0815315-1.1868741.1580839-1.7326993.1892028-2.84364332.0933567-2.95442653-.6958182-3.04591605-1.3847902-.03734265-.2968741-.19418181-1.1582447-1.1233916-5.1868951-.13132168-.5688531-.63669231-.9547273-1.19683217-.9547273-.09148951 0-.18546853.0105805-.27882518.0317413zm13.7495664.5794336c-.665944.1313216-1.100986.777972-.9696643 1.4451608.1630629.8308741.5178182 2.1042587.7524545 2.9475804l.0473007.1692867c.1518602.5445805.646028.9012028 1.1856294.9012028.1089161 0 .2196993-.014937.3298602-.0454335.6541188-.1823567 1.0381258-.8607483.8563916-1.5154895l-.0479231-.1692868c-.2246783-.8072237-.5638741-2.0258391-.7082657-2.7627342-.1163847-.5869021-.631091-.9933147-1.2074126-.9933147-.0784196 0-.1580839.0074685-.2383707.023028zm14.103077 6.2100839c-.5862798.3454196-.7804616 1.0991189-.435042 1.6847762 1.7843566 3.0272448 4.0373636 5.9474406 5.8478601 8.2944266.2421049.3143007.6061958.477986.9746434.477986.2632657 0 .5271538-.0833986.7512098-.2557972.5377343-.4157483.6379371-1.1881189.2228112-1.7264755-2.2492727-2.9152168-4.0952448-5.358049-5.6767063-8.0398742-.229035-.388986-.6391818-.6055734-1.0611539-.6055734-.2122307 0-.426951.0547692-.6236223.1705315z" fill="url(#a)" mask="url(#b)"/><g fill="#231916" transform="translate(81 17)"><path d="m135.276348 21.5053832h4.278846l5.683553-11.75484614 5.575881 11.75484614h4.262042l-9.804315-20.67165033z"/><g transform="translate(.531469 .426573)"><path d="m118.186523 9.13108881c0-3.84878322-3.701902-6.98183217-8.252105-6.98183217h-8.76121v19.01799306h3.851273v-15.16609795h4.909937c2.385574 0 4.400832 1.43333566 4.400832 3.12993706 0 1.69660139-2.015258 3.12993709-4.400832 3.12993709h-2.932021v3.0160419l5.142706 5.8018042h5.147063l-4.725713-5.3306643c3.263126-.9316993 5.62007-3.5463077 5.62007-6.61711889"/><path d="m4.18617413 2.14969231h-3.85127273v18.92837059h14.914035v-3.382h-11.06276227z"/><path d="m30.0149077 21.0788098h4.2788461l5.6841749-11.75484616 5.574014 11.75484616h4.2632867l-9.8043147-20.67165036z"/><path d="m75.8434972 2.15865455h-9.0562168v18.92027975.0553916h3.8512727v-.0553916-15.06900703h5.2049441c2.3855734 0 4.4002098 1.43395804 4.4002098 3.13055944 0 1.69660139-2.0146364 3.12931469-4.4002098 3.12931469h-3.1535874v3.8512727h3.1535874c4.5502028 0 8.2521049-3.1324265 8.2521049-6.98058739 0-3.84940559-3.7019021-6.98183216-8.2521049-6.98183216"/><path d="m179.64065 9.41427063c-2.030196-1.01634266-3.000483-1.61133566-3.124958-2.67809091-.086511-.75307692.326125-1.52482517.982734-1.8385035.519685-.24646153 1.176294-.21160839 1.71714.09024476.296874.16741958.805979.56138461.883776 1.32068531l3.831357-.39520979c-.187336-1.81547552-1.218616-3.37702098-2.828707-4.28258042-1.636853-.91925174-3.603566-.99891608-5.257846-.21036363-2.134133 1.01385314-3.430545 3.38386713-3.152965 5.76072727.377161 3.25130068 3.065832 4.59625878 5.225483 5.67732868 2.188902 1.0947622 3.155454 1.7059371 3.235119 2.9531818.056014.8731958-.364714 1.7544825-1.098497 2.2978182-.170531.126965-.360357.2371259-.562629.3286154-.91614.4095245-2.006546.3416853-2.915217-.1823567-.852035-.4916783-1.395371-1.288944-1.490595-2.1889021l-3.830111.4026784c.192937 1.840993 1.138951 3.4766014 2.631412 4.6093286.242727.1836014.496035.3584895.766769.5140839 1.105965.6373147 2.345119.9597063 3.578672.9597063.969042 0 1.935594-.1991608 2.833063-.599972.457447-.2047622.888755-.4574475 1.282098-.749965.052279-.0379651.09709-.084021.148748-.1238532 1.67544-1.3231748 2.633902-3.4124965 2.500091-5.513021-.229658-3.5855174-3.192175-5.0680209-5.354937-6.15158037"/></g></g></g></svg>